<svg version="1.1" xmlns="http://www.w3.org/2000/svg" xmlns:xlink="http://www.w3.org/1999/xlink" width="186" height="169" viewBox="0,0,256,232.59897"><g fill="#d396b4" fill-rule="nonzero" stroke="none" stroke-width="1" stroke-linecap="butt" stroke-linejoin="miter" stroke-miterlimit="10" stroke-dasharray="" stroke-dashoffset="0" font-family="none" font-weight="none" font-size="none" text-anchor="none" style="mix-blend-mode: normal"><g transform="translate(0.00007,-0.00148) scale(1.37634,1.37634)"><path d="M131.977,88.0457c-3.151,0.3031 -5.722,3.2846 -5.536,6.4466c0.045,2.403 1.619,4.6669 3.839,5.5817c2.551,1.128 5.774,0.267 7.427,-1.9768c1.746,-2.2069 1.706,-5.586 -0.091,-7.7473c-1.32,-1.6726 -3.527,-2.5671 -5.639,-2.3042zM106.832,88.0456c-2.76,0.2787 -5.142,2.6085 -5.478,5.3645c-0.329,2.2026 0.623,4.5323 2.411,5.8646c1.615,1.2633 3.868,1.6283 5.807,0.9673c2.219,-0.7214 3.921,-2.7724 4.224,-5.081c0.299,-2.067 -0.504,-4.2494 -2.087,-5.6104c-1.316,-1.1649 -3.134,-1.7149 -4.877,-1.505zM81.6954,88.0454c-0.7875,0.0901 -1.5539,0.3318 -2.2471,0.7134c-2.4241,1.2592 -3.7894,4.2197 -3.1501,6.8822c0.5862,2.953 3.5476,5.172 6.5452,4.91c2.8958,-0.132 5.4671,-2.5261 5.8117,-5.4061c0.2915,-2.0096 -0.4759,-4.1424 -1.9895,-5.5002c-1.3207,-1.2263 -3.1861,-1.8125 -4.9711,-1.5994M56.5333,88.0495c-1.9927,0.2215 -3.8306,1.4765 -4.7741,3.2445c-1.0462,1.9026 -1.0006,4.3511 0.1314,6.2092c1.4596,2.5388 4.8154,3.7488 7.5584,2.6818c2.8831,-1.0007 4.6998,-4.2898 3.9696,-7.263c-0.6074,-3.076 -3.7808,-5.3229 -6.8853,-4.8725zM144.553,62.9042c-2.318,0.2459 -4.397,1.9069 -5.173,4.1052c-1.02,2.6828 0.103,5.9591 2.564,7.4442c2.465,1.6281 6.032,1.1405 7.981,-1.0791c2.071,-2.1771 2.194,-5.8562 0.263,-8.1605c-1.313,-1.6779 -3.524,-2.5758 -5.635,-2.3098zM119.412,62.9044c-3.15,0.3042 -5.729,3.2847 -5.54,6.4478c0.024,3.2073 2.87,6.0407 6.073,6.0659c3.113,0.176 6.054,-2.3128 6.422,-5.4014c0.296,-2.0182 -0.471,-4.1508 -1.989,-5.516c-1.316,-1.2274 -3.186,-1.8093 -4.966,-1.5963zM94.255,62.9045c-2.2969,0.2586 -4.3722,1.8952 -5.1472,4.0724c-0.9635,2.5057 -0.0784,5.5572 2.0839,7.1524c2.2026,1.751 5.586,1.7065 7.7513,-0.0943c1.464,-1.1649 2.354,-3.0144 2.341,-4.8886c0.013,-1.7426 -0.75,-3.4692 -2.0421,-4.6385c-1.3207,-1.2348 -3.1989,-1.8209 -4.9871,-1.6037M69.1063,62.9085c-1.9026,0.213 -3.6577,1.3652 -4.634,3.006c-1.0208,1.6853 -1.1766,3.8593 -0.3975,5.6676c1.0748,2.6658 4.1337,4.3182 6.9554,3.7321c2.5885,-0.4515 4.721,-2.6902 5.0528,-5.2986c0.2915,-2.0181 -0.4674,-4.1424 -1.9853,-5.5075c-1.3249,-1.2349 -3.1988,-1.8254 -4.9914,-1.5996zM157.11,37.7601c-1.903,0.2173 -3.662,1.3695 -4.639,3.0104c-0.996,1.6408 -1.169,3.7478 -0.459,5.5287c0.948,2.4887 3.605,4.1869 6.262,3.9695c2.896,-0.1399 5.459,-2.5301 5.812,-5.4058c0.287,-2.0171 -0.48,-4.1454 -1.997,-5.5075c-1.32,-1.2264 -3.195,-1.8126 -4.979,-1.5953zM131.977,37.7602c-1.907,0.213 -3.674,1.3737 -4.65,3.022c-0.89,1.4606 -1.124,3.29 -0.652,4.9341c0.5,1.8094 1.87,3.343 3.596,4.0681c2.548,1.1288 5.771,0.2756 7.432,-1.9599c1.751,-2.2068 1.714,-5.5944 -0.09,-7.76c-1.317,-1.6726 -3.523,-2.5672 -5.636,-2.3043zM106.833,37.7602c-1.813,0.2014 -3.498,1.255 -4.5,2.7802c-1.119,1.6694 -1.353,3.8922 -0.603,5.7577c0.636,1.6525 2.023,2.9903 3.683,3.5965c2.552,0.9847 5.66,0.0371 7.231,-2.1941c1.674,-2.2068 1.596,-5.516 -0.18,-7.6401c-1.312,-1.6694 -3.523,-2.5672 -5.63,-2.3011M81.6968,37.755c-2.0997,0.2343 -4.0192,1.6122 -4.9255,3.5191c-0.779,1.5995 -0.8246,3.5275 -0.1272,5.16c0.9847,2.4198 3.5965,4.0479 6.2049,3.8349c2.8915,-0.1399 5.4547,-2.5258 5.8074,-5.3973c0.2915,-2.0182 -0.4759,-4.1509 -1.9895,-5.5117c-1.3207,-1.2263 -3.1862,-1.8082 -4.9711,-1.6037M17.2372,0.14756c4.0936,-0.52044 8.3461,0.34447 11.8937,2.45697c4.2282,2.4771 7.4187,6.66484 8.6663,11.40497c1.0006,3.6293 0.5289,7.4227 0.636,11.1348c46.0314,-0.0043 92.0548,0 138.0828,0c2.367,-0.0371 4.873,0.5575 6.633,2.2185c1.636,1.5008 2.325,3.8306 2.079,6.0046c-0.161,1.9641 -1.071,3.7405 -1.822,5.5287c-8.961,20.8992 -17.923,41.7984 -26.883,62.7029c-1.235,2.805 -3.298,5.183 -5.697,7.07c-2.748,2.15 -6.008,3.708 -9.466,4.274c-1.558,0.27 -3.145,0.188 -4.72,0.201h-115.6782c-0.9847,0.009 -1.9927,-0.061 -2.9572,0.202c-1.7754,0.447 -3.3134,1.726 -4.1008,3.383c-0.8321,1.718 -0.8077,3.831 0.0657,5.529c0.7504,1.496 2.1241,2.653 3.712,3.161c1.2465,0.406 2.5715,0.275 3.8635,0.296h128.258c2.821,0.013 5.647,-0.033 8.469,0.02c2.788,0.119 5.286,2.354 5.762,5.098c0.364,1.862 -0.181,3.867 -1.436,5.29c-1.213,1.415 -3.08,2.218 -4.941,2.161h-135.1366c-2.2269,-0.013 -4.4867,0.103 -6.6808,-0.377c-5.91349,-1.157 -11.11034,-5.356 -13.51339,-10.877c-1.9111,-4.282 -2.1199,-9.276 -0.59039,-13.701c1.93546,-5.762 6.83659,-10.418 12.69278,-12.042c3.7161,-1.103 7.6244,-0.607 11.4338,-0.717c-0.0042,-27.238 0.0042,-54.4758 -0.0042,-81.7137c0.0127,-1.9768 -0.9805,-3.9166 -2.5757,-5.0728c-2.0139,-1.5094 -4.9415,-1.6122 -7.054,-0.2459c-1.804,1.115 -2.9446,3.1945 -2.9403,5.3157c0.0042,2.0711 -1.0705,4.1008 -2.809,5.2329c-2.03403,1.3907 -4.89699,1.4023 -6.93101,0.0085c-1.68108,-1.0907 -2.77588,-3.0272 -2.8174,-5.0327c-0.09009,-4.6881 1.70227,-9.36692 4.85576,-12.82849c2.99025,-3.33459 7.20125,-5.54472 11.65195,-6.08633"></path><path d="M36.5737,143.996c2.7113,-0.398 5.5531,0.09 7.9486,1.435c2.5714,1.415 4.6012,3.773 5.6549,6.512c1.0419,2.699 1.0959,5.763 0.1685,8.502c-0.9391,2.81 -2.9203,5.25 -5.4547,6.772c-2.334,1.414 -5.1428,2.01 -7.8541,1.705c-3.0432,-0.324 -5.9303,-1.841 -7.9687,-4.118c-2.0626,-2.264 -3.2149,-5.315 -3.2032,-8.37c-0.0202,-3.248 1.2921,-6.488 3.5921,-8.789c1.8824,-1.961 4.4294,-3.252 7.1155,-3.651"></path><path d="M149.711,143.996c3.966,-0.619 8.191,0.803 10.934,3.74c2.707,2.785 3.986,6.865 3.339,10.696c-0.558,3.568 -2.752,6.828 -5.832,8.707c-3.31,2.066 -7.613,2.44 -11.221,0.963c-3.125,-1.242 -5.722,-3.778 -6.984,-6.898c-1.108,-2.674 -1.239,-5.733 -0.386,-8.494c1.353,-4.528 5.467,-8.071 10.15,-8.714z"></path></g></g></svg>