<svg version="1.1" xmlns="http://www.w3.org/2000/svg" xmlns:xlink="http://www.w3.org/1999/xlink" width="34" height="32" viewBox="0,0,256,240.9375"><g fill="#be4a8a" fill-rule="nonzero" stroke="none" stroke-width="1" stroke-linecap="butt" stroke-linejoin="miter" stroke-miterlimit="10" stroke-dasharray="" stroke-dashoffset="0" font-family="none" font-weight="none" font-size="none" text-anchor="none" style="mix-blend-mode: normal"><g transform="translate(2.38653,0.67688) scale(7.52941,7.52941)"><path d="M23.7298,15.9181c-0.5695,0.0548 -1.0345,0.5939 -1.0009,1.1655c0.0082,0.4345 0.2928,0.8438 0.6941,1.0092c0.4612,0.2039 1.044,0.0483 1.3427,-0.3574c0.3158,-0.399 0.3086,-1.0099 -0.0163,-1.4007c-0.2387,-0.3024 -0.6377,-0.4641 -1.0196,-0.4166zM19.1839,15.9181c-0.4991,0.0504 -0.9298,0.4716 -0.9906,0.9699c-0.0594,0.3982 0.1127,0.8194 0.436,1.0603c0.292,0.2284 0.6993,0.2943 1.0499,0.1749c0.4011,-0.1305 0.7089,-0.5013 0.7637,-0.9187c0.054,-0.3737 -0.0913,-0.7682 -0.3774,-1.0143c-0.238,-0.2106 -0.5666,-0.31 -0.8816,-0.2721zM14.6392,15.9181c-0.1423,0.0163 -0.2809,0.06 -0.4062,0.1289c-0.4383,0.2277 -0.6851,0.7629 -0.5695,1.2443c0.1059,0.5339 0.6414,0.935 1.1833,0.8877c0.5235,-0.0238 0.9884,-0.4567 1.0507,-0.9774c0.0527,-0.3633 -0.086,-0.7489 -0.3597,-0.9944c-0.2387,-0.2217 -0.576,-0.3277 -0.8987,-0.2892M10.0901,15.9188c-0.36028,0.0401 -0.69256,0.267 -0.86314,0.5866c-0.18914,0.344 -0.1809,0.7866 0.02377,1.1226c0.26387,0.459 0.87057,0.6778 1.36647,0.4848c0.5213,-0.1809 0.8497,-0.7755 0.7177,-1.3131c-0.1098,-0.5561 -0.6835,-0.9623 -1.2448,-0.8809zM26.0035,11.3727c-0.4191,0.0445 -0.7949,0.3447 -0.9352,0.7422c-0.1845,0.485 0.0186,1.0774 0.4636,1.3459c0.4455,0.2943 1.0906,0.2061 1.4428,-0.1951c0.3744,-0.3936 0.3967,-1.0588 0.0475,-1.4754c-0.2372,-0.3034 -0.637,-0.4657 -1.0187,-0.4176zM21.4582,11.3727c-0.5696,0.055 -1.0358,0.5939 -1.0017,1.1657c0.0044,0.5799 0.5189,1.0922 1.0981,1.0967c0.5628,0.0318 1.0944,-0.4181 1.1611,-0.9765c0.0534,-0.3649 -0.0853,-0.7505 -0.3597,-0.9973c-0.2378,-0.2219 -0.5761,-0.3271 -0.8978,-0.2886zM16.9099,11.3727c-0.4152,0.0468 -0.7904,0.3427 -0.9305,0.7363c-0.1742,0.453 -0.0142,1.0047 0.3767,1.2931c0.3982,0.3166 1.0099,0.3086 1.4014,-0.017c0.2647,-0.2106 0.4256,-0.545 0.4233,-0.8839c0.0023,-0.315 -0.1357,-0.6272 -0.3693,-0.8386c-0.2387,-0.2232 -0.5783,-0.3292 -0.9016,-0.2899M12.3632,11.3735c-0.344,0.0385 -0.6613,0.2468 -0.8378,0.5434c-0.1845,0.3047 -0.2127,0.6978 -0.0719,1.0247c0.1944,0.482 0.7474,0.7807 1.2576,0.6747c0.4679,-0.0816 0.8535,-0.4863 0.9135,-0.9579c0.0527,-0.3649 -0.0846,-0.7489 -0.359,-0.9957c-0.2395,-0.2233 -0.5783,-0.3301 -0.9024,-0.2892zM28.2737,6.8268c-0.344,0.03928 -0.6621,0.24759 -0.8386,0.54425c-0.1801,0.29665 -0.2114,0.67759 -0.083,0.99955c0.1713,0.44996 0.6517,0.75697 1.1322,0.71767c0.5235,-0.02529 0.9869,-0.45742 1.0507,-0.97733c0.0519,-0.36468 -0.0868,-0.74946 -0.361,-0.99573c-0.2388,-0.22172 -0.5778,-0.3277 -0.9003,-0.28841zM23.7299,6.82681c-0.3448,0.03851 -0.6642,0.24835 -0.8408,0.54635c-0.1609,0.26407 -0.2031,0.59483 -0.1178,0.89207c0.0904,0.32712 0.338,0.6044 0.6502,0.73548c0.4605,0.20409 1.0433,0.04982 1.3436,-0.35433c0.3165,-0.39898 0.3098,-1.01143 -0.0163,-1.40296c-0.238,-0.3024 -0.637,-0.46414 -1.0189,-0.41661zM19.1839,6.82681c-0.3277,0.03641 -0.6324,0.22689 -0.8134,0.50265c-0.2024,0.30182 -0.2448,0.70368 -0.1091,1.04096c0.115,0.29875 0.3656,0.54062 0.6659,0.65021c0.4613,0.17803 1.0233,0.00671 1.3073,-0.39668c0.3026,-0.39897 0.2884,-0.99725 -0.0326,-1.38127c-0.2372,-0.30182 -0.6369,-0.46413 -1.0179,-0.41604M14.6395,6.82588c-0.3796,0.04235 -0.7266,0.29147 -0.8905,0.63623c-0.1408,0.28917 -0.1491,0.63775 -0.023,0.93288c0.178,0.4375 0.6502,0.73185 1.1218,0.69334c0.5228,-0.02529 0.9862,-0.45666 1.05,-0.97581c0.0527,-0.36487 -0.0861,-0.75044 -0.3597,-0.99647c-0.2388,-0.22171 -0.5761,-0.32692 -0.8988,-0.28994M2.9856,0.02668c0.74009,-0.09409 1.50893,0.06228 2.15031,0.4442c0.76442,0.44785 1.34125,1.20496 1.56681,2.06196c0.18091,0.65615 0.09563,1.34198 0.11499,2.01309c8.32219,-0.00076 16.64289,0 24.96459,0c0.4279,-0.00671 0.881,0.1008 1.199,0.40109c0.2959,0.27135 0.4205,0.69255 0.376,1.0856c-0.0291,0.3551 -0.1937,0.67627 -0.3294,0.99956c-1.62,3.77842 -3.2403,7.55692 -4.8604,11.33632c-0.2232,0.5071 -0.5961,0.9371 -1.0298,1.2782c-0.4969,0.3886 -1.0864,0.6703 -1.7115,0.7727c-0.2817,0.0488 -0.5685,0.0341 -0.8533,0.0364h-20.91392c-0.17803,0.0015 -0.36027,-0.0111 -0.53464,0.0364c-0.32098,0.0808 -0.59904,0.3122 -0.74141,0.6117c-0.15043,0.3106 -0.14602,0.6925 0.01188,0.9995c0.13568,0.2706 0.38403,0.4797 0.67112,0.5717c0.22536,0.0734 0.4649,0.0496 0.69848,0.0534h23.18819c0.5101,0.0023 1.021,-0.0059 1.5312,0.0037c0.5042,0.0214 0.9556,0.4256 1.0417,0.9215c0.0659,0.3367 -0.0326,0.6993 -0.2595,0.9565c-0.2194,0.2558 -0.5569,0.401 -0.8934,0.3907h-24.43183c-0.40262,-0.0023 -0.81117,0.0186 -1.20785,-0.0682c-1.06912,-0.2091 -2.00868,-0.9683 -2.44314,-1.9664c-0.34552,-0.7742 -0.38326,-1.6772 -0.10674,-2.4772c0.34992,-1.0417 1.23601,-1.8834 2.29478,-2.1769c0.67185,-0.1995 1.37844,-0.1099 2.06716,-0.1298c-0.00077,-4.9244 0.00077,-9.84886 -0.00077,-14.77329c0.0023,-0.3574 -0.17726,-0.70811 -0.46567,-0.91714c-0.3641,-0.27289 -0.89339,-0.29147 -1.27531,-0.04446c-0.32615,0.2016 -0.53237,0.57756 -0.53159,0.96104c0.00077,0.37445 -0.19355,0.74142 -0.50785,0.94609c-0.36774,0.25142 -0.88534,0.25353 -1.25308,0.00153c-0.30393,-0.19719 -0.50186,-0.54729 -0.50937,-0.90988c-0.01629,-0.84757 0.30776,-1.69348 0.87789,-2.31931c0.54062,-0.60287 1.30195,-1.00245 2.1066,-1.10037"></path><path d="M6.48152,27.299c0.4902,-0.0718 1.00397,0.0163 1.43705,0.2595c0.46491,0.2558 0.83188,0.6822 1.02237,1.1774c0.18838,0.4879 0.19815,1.0419 0.03047,1.5371c-0.16978,0.508 -0.52796,0.9492 -0.98616,1.2243c-0.42198,0.2557 -0.9298,0.3634 -1.41998,0.3084c-0.55019,-0.0587 -1.07217,-0.3329 -1.44069,-0.7445c-0.37292,-0.4094 -0.58124,-0.9611 -0.57913,-1.5134c-0.00364,-0.5871 0.2336,-1.173 0.64943,-1.589c0.34034,-0.3545 0.80082,-0.5879 1.28645,-0.66"></path><path d="M26.9362,27.2991c0.7169,-0.1119 1.4807,0.1453 1.9767,0.6763c0.4894,0.5034 0.7207,1.2412 0.6036,1.9337c-0.1008,0.6451 -0.4975,1.2345 -1.0543,1.5741c-0.5985,0.3737 -1.3764,0.4412 -2.0287,0.1742c-0.5649,-0.2246 -1.0344,-0.683 -1.2626,-1.2471c-0.2003,-0.4835 -0.2241,-1.0366 -0.0698,-1.5356c0.2445,-0.8187 0.9883,-1.4593 1.8351,-1.5756z"></path></g></g></svg>